<svg xmlns="http://www.w3.org/2000/svg" viewBox="0 0 96 96" role="img" aria-labelledby="title desc">
  <title id="title">CineScope logo</title>
  <desc id="desc">A film frame with a play button and CineScope initials.</desc>
  <defs>
    <linearGradient id="mark" x1="12" y1="10" x2="84" y2="86" gradientUnits="userSpaceOnUse">
      <stop stop-color="#ff7a66"/>
      <stop offset="1" stop-color="#d64232"/>
    </linearGradient>
    <filter id="shadow" x="-25%" y="-25%" width="150%" height="150%">
      <feDropShadow dx="0" dy="8" stdDeviation="7" flood-color="#d64232" flood-opacity=".32"/>
    </filter>
  </defs>
  <rect width="96" height="96" rx="22" fill="url(#mark)" filter="url(#shadow)"/>
  <path fill="#fff" fill-opacity=".92" d="M25 31h46a8 8 0 0 1 8 8v22a8 8 0 0 1-8 8H25a8 8 0 0 1-8-8V39a8 8 0 0 1 8-8Zm1 9v20h44V40H26Z"/>
  <path fill="#fff" d="M44 43.5a3 3 0 0 1 4.5-2.6l12 7a3 3 0 0 1 0 5.2l-12 7A3 3 0 0 1 44 57.5v-14Z"/>
  <path fill="#d64232" fill-opacity=".95" d="M31 46h7v8h-7z"/>
  <path fill="#fff" fill-opacity=".8" d="M25 31h7v8h-7zm15 0h7v8h-7zm15 0h7v8h-7zm15 0h7v8h-7zM25 61h7v8h-7zm15 0h7v8h-7zm15 0h7v8h-7zm15 0h7v8h-7z"/>
</svg>
